<svg aria-hidden="true" style="position:absolute;width:0;height:0;overflow:hidden" xmlns="http://www.w3.org/2000/svg"><defs><symbol id="icon-envelop" viewBox="0 0 32 32"><path d="M29 4H3C1.35 4 0 5.35 0 7v20c0 1.65 1.35 3 3 3h26c1.65 0 3-1.35 3-3V7c0-1.65-1.35-3-3-3zM12.461 17.199 4 23.789V8.113l8.461 9.086zM5.512 8h20.976L16 15.875 5.512 8zm7.278 9.553L16 21l3.21-3.447L25.79 26H6.211l6.58-8.447zm6.749-.354L28 8.113v15.676l-8.461-6.59z"/></symbol><symbol id="icon-mobile" viewBox="0 0 32 32"><path d="M23 0H9C7.35 0 6 1.35 6 3v26c0 1.65 1.35 3 3 3h14c1.65 0 3-1.35 3-3V3c0-1.65-1.35-3-3-3zM12 1.5h8v1h-8v-1zM16 30a2 2 0 1 1-.001-3.999A2 2 0 0 1 16 30zm8-6H8V4h16v20z"/></symbol><symbol id="icon-phone" viewBox="0 0 32 32"><path d="M22 20c-2 2-2 4-4 4s-4-2-6-4-4-4-4-6 2-2 4-4-4-8-6-8-6 6-6 6c0 4 4.109 12.109 8 16s12 8 16 8c0 0 6-4 6-6s-6-8-8-6z"/></symbol><symbol id="icon-Social" viewBox="0 0 83 32"><path fill="#fff" style="fill:var(--color1, #fff)" d="M2.816 5.619a.63.63 0 0 0-.041-.234.437.437 0 0 0-.141-.191 1.129 1.129 0 0 0-.284-.169 3.927 3.927 0 0 0-.469-.175c-.212-.067-.41-.142-.594-.225s-.345-.18-.484-.291a1.236 1.236 0 0 1-.322-.381 1.07 1.07 0 0 1-.116-.506c0-.188.04-.358.119-.513.081-.154.196-.286.344-.397.148-.112.322-.199.522-.259.202-.06.425-.091.669-.091.337 0 .629.061.875.184.248.123.44.29.575.5s.203.447.203.709h-.856a.75.75 0 0 0-.091-.375.613.613 0 0 0-.269-.256.956.956 0 0 0-.45-.094 1.08 1.08 0 0 0-.438.078.588.588 0 0 0-.259.212.556.556 0 0 0-.084.3c0 .083.02.158.059.225.04.065.099.126.178.184.079.056.177.109.294.159.119.048.256.096.413.144.25.075.469.158.656.25.19.092.347.196.472.313.127.117.222.248.284.394.065.146.097.311.097.497 0 .196-.039.371-.116.525s-.188.285-.331.394a1.543 1.543 0 0 1-.519.247c-.2.056-.424.084-.672.084a2.52 2.52 0 0 1-.656-.087A1.972 1.972 0 0 1 .8 6.505a1.374 1.374 0 0 1-.419-.456 1.305 1.305 0 0 1-.156-.65h.863c0 .144.023.267.069.369.048.1.115.182.2.247.087.062.19.108.306.137s.243.044.378.044c.175 0 .319-.024.431-.072a.533.533 0 0 0 .343-.506zm1.443-.475v-.066c0-.248.035-.476.106-.684.071-.21.174-.393.309-.547s.301-.274.497-.359c.196-.087.419-.131.669-.131.254 0 .479.044.675.131.198.085.365.205.5.359s.239.336.309.547c.071.208.106.436.106.684v.066c0 .246-.035.474-.106.684a1.633 1.633 0 0 1-.309.547c-.135.154-.301.274-.497.359s-.42.128-.672.128c-.25 0-.474-.043-.672-.128s-.365-.205-.5-.359a1.616 1.616 0 0 1-.309-.547 2.127 2.127 0 0 1-.106-.684zm.825-.066v.066c0 .148.015.286.044.416s.074.243.134.341c.06.098.139.175.234.231a.716.716 0 0 0 .35.081.692.692 0 0 0 .344-.081.663.663 0 0 0 .234-.231c.062-.098.108-.211.137-.341s.044-.268.044-.416v-.066c0-.146-.015-.282-.044-.409a1.074 1.074 0 0 0-.137-.341.657.657 0 0 0-.585-.322.645.645 0 0 0-.578.322 1.11 1.11 0 0 0-.134.341 1.838 1.838 0 0 0-.044.409zm4.463 1.134c.117 0 .221-.023.312-.069s.165-.11.219-.194a.554.554 0 0 0 .091-.291h.778c-.004.229-.069.434-.194.616s-.292.325-.5.431a1.52 1.52 0 0 1-.694.156c-.26 0-.487-.044-.681-.131s-.355-.209-.484-.366a1.61 1.61 0 0 1-.287-.544 2.256 2.256 0 0 1-.094-.663v-.1c0-.235.031-.456.094-.662.065-.206.16-.388.287-.544.129-.156.291-.278.484-.366s.42-.131.678-.131c.273 0 .512.053.719.159.208.106.371.256.487.45.119.194.18.422.184.684h-.778c-.004-.121-.031-.229-.081-.325s-.121-.173-.212-.231a.613.613 0 0 0-.334-.088.645.645 0 0 0-.35.088.601.601 0 0 0-.216.241c-.05.1-.085.213-.106.338a2.535 2.535 0 0 0-.028.387v.1c0 .138.009.269.028.394.021.125.056.238.106.338a.609.609 0 0 0 .216.234.668.668 0 0 0 .356.087zM12.5 3.419V6.8h-.828V3.419h.828zm-.885-.885a.41.41 0 0 1 .125-.306c.085-.081.2-.122.344-.122s.257.041.341.122a.405.405 0 0 1 .128.306.402.402 0 0 1-.128.303c-.083.081-.197.122-.341.122s-.258-.041-.344-.122a.407.407 0 0 1-.125-.303zm3.663 3.547V4.522c0-.115-.02-.214-.059-.297s-.1-.148-.181-.194-.184-.069-.309-.069a.716.716 0 0 0-.291.056.434.434 0 0 0-.188.159.411.411 0 0 0-.066.231h-.828c0-.14.033-.272.1-.397.067-.127.161-.24.284-.337.125-.1.274-.178.447-.234.175-.056.371-.084.587-.084a1.7 1.7 0 0 1 .684.131c.202.085.36.215.475.388.117.173.175.391.175.653v1.475c0 .169.01.314.031.434.023.119.056.222.1.309v.053h-.841a1.233 1.233 0 0 1-.091-.325 2.528 2.528 0 0 1-.031-.394zm.115-1.34.006.491h-.522a1.29 1.29 0 0 0-.341.041.634.634 0 0 0-.241.112.468.468 0 0 0-.141.175.537.537 0 0 0-.047.228c0 .083.019.158.056.225.04.067.096.12.169.159a.584.584 0 0 0 .262.056.794.794 0 0 0 .381-.087c.108-.06.193-.133.253-.219s.093-.167.097-.244l.237.356c-.029.085-.073.176-.131.272s-.133.185-.225.269c-.092.083-.202.152-.331.206s-.279.081-.45.081c-.219 0-.415-.044-.588-.131s-.309-.207-.409-.359-.15-.325-.15-.519c0-.179.033-.337.1-.475s.166-.253.297-.347a1.38 1.38 0 0 1 .487-.216c.196-.05.42-.075.672-.075h.556zM17.856 2v4.8h-.828V2h.828zm3.459 2.112V6.8h-.825V3.419h.778l.047.694zm-.122.876h-.253c0-.235.028-.452.084-.65a1.56 1.56 0 0 1 .256-.516c.113-.148.251-.263.416-.344.167-.081.359-.122.578-.122.152 0 .292.023.419.069a.827.827 0 0 1 .328.209.916.916 0 0 1 .216.369c.05.15.075.33.075.541V6.8h-.825V4.628a.828.828 0 0 0-.069-.372.366.366 0 0 0-.191-.187.717.717 0 0 0-.3-.056.642.642 0 0 0-.562.287c-.058.09-.102.193-.131.309a1.678 1.678 0 0 0-.041.378zm2.056-.154-.341.063c.002-.213.031-.411.087-.597.056-.188.139-.351.247-.491.11-.142.247-.252.409-.331.165-.081.354-.122.569-.122.167 0 .317.024.45.072.135.046.251.12.347.222.096.1.169.23.219.391.052.16.078.356.078.587V6.8h-.831V4.625a.827.827 0 0 0-.069-.378.355.355 0 0 0-.191-.181.753.753 0 0 0-.294-.053.617.617 0 0 0-.512.241.816.816 0 0 0-.128.263 1.195 1.195 0 0 0-.041.319zm4.453 2.028c-.256 0-.486-.042-.691-.125s-.378-.199-.522-.347a1.587 1.587 0 0 1-.328-.522 1.82 1.82 0 0 1-.112-.644v-.125c0-.26.037-.497.112-.709.075-.215.181-.399.319-.553s.302-.273.494-.356.403-.125.634-.125c.24 0 .451.041.634.122.183.079.336.192.459.337s.216.321.278.525c.063.202.094.426.094.672v.347h-2.65V4.79h1.837v-.063a.986.986 0 0 0-.075-.359.585.585 0 0 0-.212-.263.636.636 0 0 0-.372-.1.624.624 0 0 0-.322.081.638.638 0 0 0-.225.225c-.058.096-.102.21-.131.344s-.044.281-.044.444v.125c0 .142.019.273.056.394.04.121.097.226.172.316a.832.832 0 0 0 .275.206.9.9 0 0 0 .369.072c.173 0 .329-.033.469-.1.142-.069.265-.17.369-.303l.416.431a1.465 1.465 0 0 1-.718.534 1.798 1.798 0 0 1-.584.087zm4.081-.781V2h.831v4.8h-.75l-.081-.719zm-2.172-.931v-.066c0-.258.029-.493.088-.703.06-.212.148-.395.262-.547s.253-.27.416-.353c.165-.083.351-.125.559-.125.202 0 .378.041.528.122.152.081.281.197.388.347.108.15.195.328.259.534.065.204.111.429.141.675v.178c-.029.24-.076.459-.141.659s-.151.375-.259.525c-.106.148-.235.262-.388.344s-.33.122-.534.122c-.206 0-.392-.043-.556-.128a1.22 1.22 0 0 1-.416-.359 1.725 1.725 0 0 1-.259-.544 2.528 2.528 0 0 1-.088-.681zm.828-.066v.066c0 .146.013.282.038.409s.066.24.122.338a.631.631 0 0 0 .216.225.62.62 0 0 0 .325.081.694.694 0 0 0 .4-.106.722.722 0 0 0 .247-.297c.058-.127.096-.27.113-.428v-.491a1.344 1.344 0 0 0-.066-.347.81.81 0 0 0-.144-.275c-.06-.077-.135-.137-.225-.181s-.196-.066-.319-.066a.602.602 0 0 0-.544.312 1.155 1.155 0 0 0-.125.341 2.205 2.205 0 0 0-.038.419zm3.925-1.665V6.8h-.828V3.419h.828zm-.884-.885a.41.41 0 0 1 .125-.306c.085-.081.2-.122.344-.122s.257.041.341.122a.405.405 0 0 1 .128.306.402.402 0 0 1-.128.303c-.083.081-.197.122-.341.122s-.258-.041-.344-.122a.407.407 0 0 1-.125-.303zm3.662 3.547V4.522c0-.115-.02-.214-.059-.297s-.1-.148-.181-.194a.62.62 0 0 0-.309-.069.716.716 0 0 0-.291.056.434.434 0 0 0-.188.159.411.411 0 0 0-.066.231h-.828c0-.14.033-.272.1-.397.067-.127.161-.24.284-.337.125-.1.274-.178.447-.234.175-.056.371-.084.587-.084a1.7 1.7 0 0 1 .684.131c.202.085.36.215.475.388.117.173.175.391.175.653v1.475c0 .169.01.314.031.434.023.119.056.222.1.309v.053h-.841a1.233 1.233 0 0 1-.091-.325 2.528 2.528 0 0 1-.031-.394zm.116-1.34.006.491h-.522a1.29 1.29 0 0 0-.341.041.634.634 0 0 0-.241.112.468.468 0 0 0-.141.175.537.537 0 0 0-.047.228c0 .083.019.158.056.225.04.067.096.12.169.159a.584.584 0 0 0 .262.056.794.794 0 0 0 .381-.087c.108-.06.193-.133.253-.219s.093-.167.097-.244l.238.356c-.029.085-.073.176-.131.272s-.133.185-.225.269c-.092.083-.202.152-.331.206s-.279.081-.45.081c-.219 0-.415-.044-.587-.131s-.309-.207-.409-.359-.15-.325-.15-.519c0-.179.033-.337.1-.475s.166-.253.297-.347c.131-.096.294-.168.488-.216.196-.05.42-.075.672-.075h.556z"/><path fill="#fff" style="fill:var(--color1, #fff)" opacity=".1" d="M16 24c0 2.209-.895 4.209-2.343 5.657S10.209 32 8 32s-4.209-.895-5.657-2.343S0 26.209 0 24s.895-4.209 2.343-5.657S5.791 16 8 16s4.209.895 5.657 2.343S16 21.791 16 24z"/><path fill="#f4f4fd" style="fill:var(--color2, #f4f4fd)" d="M12.791 22.022c-.022-.51-.105-.861-.223-1.165a2.334 2.334 0 0 0-.555-.851 2.359 2.359 0 0 0-.85-.553c-.306-.118-.654-.201-1.165-.223-.514-.024-.677-.03-1.98-.03s-1.467.006-1.979.028c-.51.023-.861.105-1.165.223a2.334 2.334 0 0 0-.851.555c-.244.24-.433.531-.553.85-.118.306-.201.654-.223 1.165-.024.514-.03.677-.03 1.98s.006 1.467.028 1.979c.022.51.105.861.223 1.165.122.323.311.611.555.851.24.244.531.433.85.553.306.118.654.201 1.165.223.512.023.675.028 1.978.028s1.467-.006 1.979-.028c.51-.022.861-.105 1.165-.223a2.458 2.458 0 0 0 1.405-1.405c.118-.306.201-.655.223-1.165.022-.512.028-.675.028-1.979s-.002-1.467-.024-1.978zm-.865 3.92c-.021.469-.099.722-.165.891a1.59 1.59 0 0 1-.911.911c-.169.066-.424.144-.891.165-.506.023-.658.028-1.939.028s-1.435-.006-1.939-.028c-.469-.021-.722-.099-.891-.165a1.476 1.476 0 0 1-.551-.358 1.5 1.5 0 0 1-.358-.551c-.066-.169-.144-.424-.165-.891-.023-.506-.028-.658-.028-1.939s.006-1.435.028-1.939c.021-.469.099-.722.165-.891.077-.208.199-.398.36-.551a1.5 1.5 0 0 1 .551-.358c.169-.066.424-.144.891-.165.506-.022.658-.028 1.939-.028 1.283 0 1.435.006 1.939.028.469.021.722.099.891.165.208.077.398.199.551.358a1.5 1.5 0 0 1 .358.551c.066.169.144.424.165.891.022.506.028.658.028 1.939s-.006 1.431-.028 1.937z"/><path fill="#f4f4fd" style="fill:var(--color2, #f4f4fd)" d="M8.018 21.535a2.467 2.467 0 0 0 0 4.932 2.467 2.467 0 0 0 0-4.932zm0 4.066a1.6 1.6 0 1 1 0-3.2 1.6 1.6 0 0 1 0 3.2zM11.157 21.437a.576.576 0 1 1-1.152 0 .576.576 0 0 1 1.152 0z"/><path fill="#fff" style="fill:var(--color1, #fff)" opacity=".1" d="M38.4 24c0 2.209-.895 4.209-2.343 5.657S32.609 32 30.4 32s-4.209-.895-5.657-2.343S22.4 26.209 22.4 24s.895-4.209 2.343-5.657S28.191 16 30.4 16s4.209.895 5.657 2.343S38.4 21.791 38.4 24z"/><path fill="#f4f4fd" style="fill:var(--color2, #f4f4fd)" d="M35.2 21.023c-.357.157-.737.26-1.134.311a1.96 1.96 0 0 0 .866-1.088c-.38.227-.8.387-1.248.476a1.967 1.967 0 0 0-3.405 1.346c0 .156.013.306.046.449a5.572 5.572 0 0 1-4.057-2.059 1.972 1.972 0 0 0 .605 2.631 1.951 1.951 0 0 1-.889-.242v.022c0 .956.682 1.751 1.577 1.934-.16.044-.335.065-.516.065a1.71 1.71 0 0 1-.373-.034 1.988 1.988 0 0 0 1.839 1.371 3.954 3.954 0 0 1-2.911.812 5.543 5.543 0 0 0 3.019.883c3.622 0 5.602-3 5.602-5.6 0-.087-.003-.171-.007-.254.391-.277.719-.623.986-1.022z"/><path fill="#fff" style="fill:var(--color1, #fff)" opacity=".1" d="M60.8 24c0 2.209-.896 4.209-2.343 5.657S55.009 32 52.8 32s-4.209-.895-5.657-2.343S44.8 26.209 44.8 24s.896-4.209 2.343-5.657S50.591 16 52.8 16s4.209.895 5.657 2.343S60.8 21.791 60.8 24z"/><path fill="#f4f4fd" style="fill:var(--color2, #f4f4fd)" d="M54.399 20.794h.876v-1.526a11.226 11.226 0 0 0-1.277-.068c-1.264 0-2.129.795-2.129 2.256V22.8h-1.394v1.706h1.394V28.8h1.71v-4.293h1.338l.212-1.706h-1.551v-1.176c0-.493.133-.831.82-.831z"/><path fill="#fff" style="fill:var(--color1, #fff)" opacity=".1" d="M83.2 24c0 2.209-.896 4.209-2.343 5.657S77.409 32 75.2 32s-4.209-.895-5.657-2.343S67.2 26.209 67.2 24s.896-4.209 2.343-5.657S72.991 16 75.2 16s4.209.895 5.657 2.343S83.2 21.791 83.2 24z"/><path fill="#f4f4fd" style="fill:var(--color2, #f4f4fd)" d="M79.998 28.8H80v-3.521c0-1.722-.371-3.049-2.384-3.049-.968 0-1.618.531-1.883 1.035h-.028v-.874h-1.909V28.8h1.988v-3.174c0-.836.158-1.644 1.193-1.644 1.02 0 1.035.954 1.035 1.697v3.12h1.986zM70.558 22.391h1.99V28.8h-1.99v-6.409zM71.553 19.2c-.636 0-1.153.516-1.153 1.153s.516 1.164 1.153 1.164c.636 0 1.153-.527 1.153-1.164s-.517-1.153-1.153-1.153z"/></symbol><symbol id="icon-nout" viewBox="0 0 75 32"><path fill="#f4f4fd" style="fill:var(--color2, #f4f4fd)" d="M1.143 0h73.143c.631 0 1.143.512 1.143 1.143v29.714c0 .631-.512 1.143-1.143 1.143H1.143A1.143 1.143 0 0 1 0 30.857V1.143C0 .512.512 0 1.143 0z"/><path fill="#4d5ae5" style="fill:var(--color3, #4d5ae5)" d="M37.1 15.408h.609v2.741H37.1v-2.741zM39.537 16.627h.609v1.523h-.609v-1.523zM34.663 17.541h.609v.609h-.609v-.609zM32.836 17.236h.609v.914h-.609v-.914z"/><path fill="#2e2f42" style="fill:var(--color4, #2e2f42)" d="M29.485 23.023h14.621a.914.914 0 0 0 .914-.914v-1.218a.914.914 0 0 0-.914-.914h-.305v-7.596l1.73-1.639a.92.92 0 1 0-.426-.436l-1.304 1.236v-.703a.914.914 0 0 0-.914-.914H30.703a.914.914 0 0 0-.914.914v9.138h-.305a.914.914 0 0 0-.914.914v1.218c0 .505.409.914.914.914zM45.934 9.621a.305.305 0 1 1 0 .61.305.305 0 0 1 0-.61zm-15.535 1.218c0-.168.136-.305.305-.305h12.184c.168 0 .305.136.305.305v1.279l-.609.579v-1.249a.305.305 0 0 0-.305-.305H31.313a.305.305 0 0 0-.305.305v7.615c0 .168.136.305.305.305h10.966a.305.305 0 0 0 .305-.305v-5.528l.609-.577v7.019H30.4v-9.138zm2.742 3.96a.914.914 0 1 0 .633 1.571l1.059.531a.304.304 0 0 0 .364-.07l2.251-2.532 2.213 1.658a.306.306 0 0 0 .392-.022l1.923-1.822v4.646H31.619v-7.006h10.357v1.52l-2.155 2.041-2.231-1.673a.304.304 0 0 0-.41.041l-2.282 2.567-.853-.427c.006-.037.01-.073.012-.111a.914.914 0 0 0-.914-.914zm.304.914a.306.306 0 1 1-.611-.001.306.306 0 0 1 .611.001zm1.828 4.874h3.046v.305a.305.305 0 0 1-.305.305h-2.437a.305.305 0 0 1-.305-.305v-.305zm-6.092.304c0-.168.137-.305.305-.305h5.178v.305c0 .505.409.914.914.914h2.437a.914.914 0 0 0 .914-.914v-.305h5.178c.168 0 .305.136.305.305v1.218a.306.306 0 0 1-.305.305H29.486a.305.305 0 0 1-.305-.305v-1.218z"/></symbol><symbol id="icon-lokator" viewBox="0 0 75 32"><path fill="#f4f4fd" style="fill:var(--color2, #f4f4fd)" d="M1.143 0h73.143c.631 0 1.143.512 1.143 1.143v29.714c0 .631-.512 1.143-1.143 1.143H1.143A1.143 1.143 0 0 1 0 30.857V1.143C0 .512.512 0 1.143 0z"/><path fill="#2e2f42" style="fill:var(--color4, #2e2f42)" d="m46.156 19.484-4.825-4.86.535-2.637c.138.054.285.082.433.083h.004a1.234 1.234 0 1 0-1.148-.82l-2.834.346-4.623-4.647a.301.301 0 0 0-.428-.002l-.864.859a.305.305 0 0 0 0 .431l.465.472a8.537 8.537 0 0 0 1.44 10.093.311.311 0 0 0 .083.056 1.823 1.823 0 0 0-.03.313v3.535h-3.657a1.526 1.526 0 0 0-1.524 1.524v.61c0 .168.137.305.305.305h14.019a.305.305 0 0 0 .305-.305v-.61a1.526 1.526 0 0 0-1.524-1.524h-3.657v-1.567c.573.12 1.157.181 1.742.183a8.496 8.496 0 0 0 4.023-1.019l.467.47a.301.301 0 0 0 .428.002l.864-.859a.305.305 0 0 0 0-.431zm-4.282-9.065a.61.61 0 1 1 .429 1.041h-.002a.609.609 0 0 1-.426-1.042h-.001zm-.717 2.002-.342 1.683-.672-.676 1.014-1.008zm-.346-.515-1.097 1.091-.849-.853 1.946-.237zm1.477 11.408c.505 0 .914.409.914.914v.305H29.793v-.305c0-.505.409-.914.914-.914h11.581zm-4.267-1.219v.61h-3.048v-.61h3.048zm-3.047-.609V19.17c0-.739.684-1.341 1.524-1.341s1.524.602 1.524 1.341v2.316h-3.048zm3.657-.969V19.17c0-1.075-.957-1.95-2.133-1.95a2.169 2.169 0 0 0-1.875 1.021 7.924 7.924 0 0 1-1.302-9.078l10.63 10.691a7.899 7.899 0 0 1-5.319.665zm6.451-.391L33.049 8.023l.431-.43 4.534 4.56c.002 0 .003.004.006.005l7.494 7.538-.433.43z"/><path fill="#4d5ae5" style="fill:var(--color3, #4d5ae5)" d="M36.5 18.438h-.003a.915.915 0 0 0-.002 1.829h.003a.915.915 0 0 0 .003-1.829zm.214 1.13a.305.305 0 1 1-.216-.521.304.304 0 0 1 .213.521h.003z"/></symbol><symbol id="icon-clock" viewBox="0 0 75 32"><path fill="#f4f4fd" style="fill:var(--color2, #f4f4fd)" d="M1.143 0h73.143c.631 0 1.143.512 1.143 1.143v29.714c0 .631-.512 1.143-1.143 1.143H1.143A1.143 1.143 0 0 1 0 30.857V1.143C0 .512.512 0 1.143 0z"/><path fill="#2e2f42" style="fill:var(--color4, #2e2f42)" d="M46.455 15.601a8.746 8.746 0 1 0-11.406 8.332.385.385 0 0 0 .303-.038.365.365 0 0 0 .162-.204l2.209-7a1.094 1.094 0 1 0-.481-2.078l-2.918-2.918a.364.364 0 0 0-.515.515l2.916 2.919a1.071 1.071 0 0 0 .306 1.319l-2.104 6.67c-4.159-1.532-6.288-6.145-4.756-10.304s6.145-6.288 10.304-4.756a8.024 8.024 0 0 1 .492 14.86l-.227-1.071a.364.364 0 0 0-.599-.196l-2.193 1.957a.363.363 0 0 0 .132.619l2.799.893a.365.365 0 0 0 .468-.422l-.223-1.051a8.718 8.718 0 0 0 5.331-8.051zm-8.745-.365a.365.365 0 1 1 0 .73.365.365 0 0 1 0-.73zm1.2 8.494 1.248-1.113.345 1.623-1.593-.51z"/><path fill="#4d5ae5" style="fill:var(--color3, #4d5ae5)" d="M37.345 8.677v.729a.364.364 0 0 0 .729 0v-.729a.364.364 0 0 0-.729 0zM30.786 15.236a.364.364 0 0 0 0 .728h.729a.364.364 0 0 0 0-.728h-.729zM44.633 15.965a.365.365 0 1 0 0-.728h-.729a.364.364 0 0 0 0 .728h.729z"/></symbol><symbol id="icon-astronaut-1" viewBox="0 0 32 32"><path fill="#4d5ae5" style="fill:var(--color3, #4d5ae5)" d="M31.974 4.524a.534.534 0 0 0-.43-.363l-1.91-.278-.855-1.731c-.179-.365-.777-.365-.956 0l-.855 1.731-1.91.278a.535.535 0 0 0-.296.91l1.383 1.348-.326 1.903c-.034.2.048.402.212.522a.53.53 0 0 0 .562.04l1.709-.899 1.709.899a.536.536 0 0 0 .775-.563l-.326-1.903 1.383-1.348a.536.536 0 0 0 .135-.547zm-2.463 1.327a.534.534 0 0 0-.153.472l.191 1.114-1-.526a.533.533 0 0 0-.498 0l-1.001.526.191-1.114a.534.534 0 0 0-.153-.472l-.81-.789 1.119-.163a.532.532 0 0 0 .402-.292l.5-1.013.5 1.013a.535.535 0 0 0 .402.292l1.119.163-.809.789zM26.134 20.522h-1.067v1.067h1.067v-1.067zM26.134 22.656h-1.067v1.067h1.067v-1.067zM27.2 21.589h-1.067v1.067H27.2v-1.067zM25.067 21.589H24v1.067h1.067v-1.067zM22.4 26.389h-1.067v1.067H22.4v-1.067zM22.4 28.522h-1.067v1.067H22.4v-1.067zM23.467 27.456H22.4v1.067h1.067v-1.067zM21.333 27.456h-1.067v1.067h1.067v-1.067zM16 24.256h-1.067v1.067H16v-1.067zM16 26.389h-1.067v1.067H16v-1.067zM17.067 25.322H16v1.067h1.067v-1.067zM14.933 25.322h-1.067v1.067h1.067v-1.067zM5.867 6.122H4.8v1.067h1.067V6.122zM5.867 8.255H4.8v1.067h1.067V8.255z"/><path fill="#4d5ae5" style="fill:var(--color3, #4d5ae5)" d="M6.933 7.189H5.866v1.067h1.067V7.189zM4.8 7.189H3.733v1.067H4.8V7.189z"/><path fill="#2e2f42" style="fill:var(--color4, #2e2f42)" d="M24.715 14.159a1.775 1.775 0 0 0-1.188-.705 1.778 1.778 0 0 0-1.34.352l-1.252.96-1.898 1.417-1.358-.541c2.421-1.086 4.114-3.508 4.114-6.32 0-3.823-3.123-6.933-6.961-6.933s-6.961 3.11-6.961 6.933a6.86 6.86 0 0 0 1.12 3.758l-2.764-.024h-.005c-.009 0-.015.004-.023.005a.515.515 0 0 0-.155.031l-.038.013c-.006.003-.013.003-.019.006l-3.233 1.596-.001.001-1.893.911a.397.397 0 0 0-.063.035 1.779 1.779 0 0 0-.598 2.295c.22.429.595.745 1.056.889a1.776 1.776 0 0 0 1.378-.128l1.388-.738 2.264-1.169 1.357-.008L2.2 22.211l-.002.001-1.339 1.333c-.316.315-.49.732-.49 1.178s.174.863.49 1.179c.325.323.752.485 1.179.485s.854-.162 1.18-.485l1.314-1.309 1.741-1.3.901.897-1.762 1.754-.002.001-1.339 1.333c-.316.315-.49.732-.49 1.178s.174.863.49 1.179c.325.323.753.485 1.18.485s.855-.162 1.18-.485l3.482-3.467.001-.002 1.01-1-.004-.004c.006-.006.015-.009.022-.015l5.166-5.658 3.471.494a.52.52 0 0 0 .262-.033c.018-.006.033-.015.05-.023.019-.01.039-.015.058-.027l3.213-2.133c.012-.008.018-.021.029-.029.013-.01.029-.014.041-.026l1.271-1.191c.662-.62.753-1.635.212-2.362zM2.13 17.77a.714.714 0 0 1-.558.052.717.717 0 0 1-.213-1.26l1.314-.632.449 1.313-.992.527zm3.498-1.828-1.548.8-.439-1.283 2.027-1.001-.04 1.484zm15.099-6.62a5.79 5.79 0 0 1-.599 2.559l-4.181-1.899a1.863 1.863 0 0 0-.788-1.388l1.464-4.86c2.378.756 4.105 2.974 4.105 5.588zm-11.789 0c0-3.235 2.644-5.867 5.894-5.867.253 0 .5.021.745.052l-1.432 4.754c-.019-.001-.037-.006-.057-.006-1.033 0-1.873.837-1.873 1.867s.84 1.867 1.873 1.867c.694 0 1.294-.383 1.618-.945l3.862 1.755a5.894 5.894 0 0 1-4.737 2.39c-3.25 0-5.894-2.632-5.894-5.867zm5.956.8c0 .441-.362.8-.806.8s-.806-.359-.806-.8c0-.441.362-.8.806-.8s.806.359.806.8zM2.465 25.146a.608.608 0 0 1-.854.001.592.592 0 0 1 0-.844l.962-.958.851.848-.959.955zm3.214 3.734a.608.608 0 0 1-.855.001.592.592 0 0 1 0-.844l.963-.959.852.848-.96.955zm3.481-3.469-.002.001-1.765 1.76-.852-.848 1.763-1.755.002-.001c.04-.04.065-.088.09-.135.007-.014.02-.026.026-.04.017-.041.019-.085.026-.129.003-.025.014-.047.014-.073 0-.036-.013-.07-.02-.106-.006-.032-.006-.065-.019-.095a.55.55 0 0 0-.091-.138c-.01-.012-.014-.027-.025-.038h-.001l-.001-.002-1.607-1.6c-.017-.017-.039-.024-.058-.038a.507.507 0 0 0-.087-.058.515.515 0 0 0-.093-.033.507.507 0 0 0-.103-.02.5.5 0 0 0-.095.005.53.53 0 0 0-.104.02.477.477 0 0 0-.094.045c-.02.011-.042.015-.061.029L4.23 23.486l-.901-.897 2.399-2.386 4.361 4.289-.928.919zm6.819-7.017c-.015-.002-.03.004-.045.003a.556.556 0 0 0-.3.075.492.492 0 0 0-.083.061c-.013.011-.028.017-.04.029l-4.698 5.146-4.328-4.257 2.833-2.818a.534.534 0 0 0-.379-.911v-.001l-2.219.013.028-1.607 3.104.027a6.947 6.947 0 0 0 4.981 2.101c.437 0 .864-.045 1.279-.123.04.032.079.065.13.085l2.41.96.152.758.178.885-3.003-.427zm4.041.178-.313-1.558 1.446-1.08.947 1.257-2.08 1.381zm3.754-2.831-.838.785-.931-1.236.831-.637a.735.735 0 0 1 .543-.143.718.718 0 0 1 .48.284.713.713 0 0 1-.085.947z"/><path fill="#2e2f42" style="fill:var(--color4, #2e2f42)" d="m13.602 18.544-2.143-2.133a.534.534 0 0 0-.753 0l-2.142 2.133a.537.537 0 0 0 0 .756l2.142 2.133a.536.536 0 0 0 .753 0l2.143-2.133a.535.535 0 0 0 0-.756zm-2.519 1.759-1.387-1.381 1.387-1.381 1.387 1.381-1.387 1.381zM17.164 5.071l-.258 1.036c.071.018 1.738.452 1.738 2.149h1.067c0-2.017-1.666-2.965-2.547-3.185zM19.711 9.322h-1.067v1.067h1.067V9.322z"/></symbol><symbol id="icon-Traling-Icons" viewBox="0 0 155 32"><path fill="#4d5ae5" style="fill:var(--color3, #4d5ae5)" d="M26.667 16c0 3.682-1.492 7.015-3.905 9.428s-5.746 3.905-9.428 3.905c-3.682 0-7.015-1.492-9.428-3.905S.001 19.682.001 16c0-3.682 1.492-7.015 3.905-9.428s5.746-3.905 9.428-3.905 7.015 1.492 9.428 3.905A13.29 13.29 0 0 1 26.667 16z"/><path fill="#f4f4fd" style="fill:var(--color2, #f4f4fd)" d="M18.656 13.803c-.025-.567-.117-.956-.248-1.294a2.603 2.603 0 0 0-.617-.946 2.638 2.638 0 0 0-.944-.615c-.34-.131-.727-.223-1.294-.248-.571-.027-.752-.033-2.2-.033s-1.629.006-2.198.031c-.567.025-.956.117-1.294.248a2.603 2.603 0 0 0-.946.617c-.271.267-.481.59-.615.944-.131.34-.223.727-.248 1.294-.027.571-.033.752-.033 2.2s.006 1.629.031 2.198c.025.567.117.956.248 1.294.135.358.346.679.617.946.267.271.59.481.944.615.34.131.727.223 1.294.248.569.025.75.031 2.198.031s1.629-.006 2.198-.031c.567-.025.956-.117 1.294-.248a2.727 2.727 0 0 0 1.561-1.561c.131-.34.223-.727.248-1.294.025-.569.031-.75.031-2.198s-.002-1.629-.027-2.198zm-.96 4.355c-.023.521-.11.802-.183.99a1.767 1.767 0 0 1-1.013 1.013c-.188.073-.471.16-.99.183-.563.025-.731.031-2.155.031s-1.594-.006-2.155-.031c-.521-.023-.802-.11-.99-.183a1.642 1.642 0 0 1-.613-.398 1.65 1.65 0 0 1-.398-.613c-.073-.188-.16-.471-.183-.99-.025-.563-.031-.731-.031-2.155s.006-1.594.031-2.155c.023-.521.11-.802.183-.99.085-.231.221-.442.4-.613a1.65 1.65 0 0 1 .613-.398c.188-.073.471-.16.99-.183.563-.025.731-.031 2.155-.031 1.425 0 1.594.006 2.155.031.521.023.802.11.99.183.231.085.442.221.613.398.177.173.313.381.398.613.073.188.16.471.183.99.025.563.031.731.031 2.155s-.006 1.59-.031 2.152z"/><path fill="#f4f4fd" style="fill:var(--color2, #f4f4fd)" d="M13.353 13.261a2.74 2.74 0 1 0 0 5.48 2.74 2.74 0 0 0 0-5.48zm0 4.517a1.778 1.778 0 1 1 .001-3.555 1.778 1.778 0 0 1-.001 3.555zM16.841 13.152a.64.64 0 1 1-1.28 0 .64.64 0 0 1 1.28 0z"/><path fill="#4d5ae5" style="fill:var(--color3, #4d5ae5)" d="M69.333 16c0 3.682-1.493 7.015-3.905 9.428S59.682 29.333 56 29.333s-7.015-1.492-9.428-3.905c-2.413-2.413-3.905-5.746-3.905-9.428s1.492-7.015 3.905-9.428C48.985 4.159 52.318 2.667 56 2.667s7.015 1.492 9.428 3.905A13.29 13.29 0 0 1 69.333 16z"/><path fill="#f4f4fd" style="fill:var(--color2, #f4f4fd)" d="M61.333 12.693a4.559 4.559 0 0 1-1.26.345c.453-.271.799-.696.962-1.209a4.36 4.36 0 0 1-1.387.529 2.186 2.186 0 0 0-3.782 1.495c0 .173.015.34.051.499a6.19 6.19 0 0 1-4.507-2.287 2.19 2.19 0 0 0 .672 2.922 2.173 2.173 0 0 1-.988-.269v.024c0 1.063.758 1.945 1.752 2.149a2.168 2.168 0 0 1-.573.072c-.14 0-.281-.008-.414-.037a2.206 2.206 0 0 0 2.043 1.523 4.395 4.395 0 0 1-3.234.903 6.155 6.155 0 0 0 3.355.981c4.024 0 6.224-3.333 6.224-6.223 0-.097-.003-.19-.008-.283a4.366 4.366 0 0 0 1.096-1.135z"/><path fill="#4d5ae5" style="fill:var(--color3, #4d5ae5)" d="M112 16c0 3.682-1.493 7.015-3.905 9.428s-5.746 3.905-9.428 3.905c-3.682 0-7.015-1.492-9.428-3.905S85.334 19.682 85.334 16c0-3.682 1.493-7.015 3.905-9.428s5.746-3.905 9.428-3.905 7.015 1.492 9.428 3.905A13.29 13.29 0 0 1 112 16z"/><path fill="#f4f4fd" style="fill:var(--color2, #f4f4fd)" d="M100.443 12.438h.973v-1.696a12.601 12.601 0 0 0-1.419-.075c-1.404 0-2.365.883-2.365 2.506v1.494h-1.549v1.896h1.549v4.771h1.899v-4.77h1.487l.236-1.896h-1.723v-1.306c.001-.548.148-.923.912-.923z"/><path fill="#4d5ae5" style="fill:var(--color3, #4d5ae5)" d="M154.667 16c0 3.682-1.493 7.015-3.905 9.428s-5.746 3.905-9.428 3.905c-3.682 0-7.015-1.492-9.428-3.905s-3.905-5.746-3.905-9.428c0-3.682 1.493-7.015 3.905-9.428s5.746-3.905 9.428-3.905 7.015 1.492 9.428 3.905A13.29 13.29 0 0 1 154.667 16z"/><path fill="#f4f4fd" style="fill:var(--color2, #f4f4fd)" d="M146.664 21.333h.003v-3.912c0-1.914-.412-3.388-2.649-3.388-1.075 0-1.797.59-2.092 1.15h-.031v-.971h-2.121v7.121h2.209v-3.526c0-.928.176-1.826 1.325-1.826 1.133 0 1.15 1.06 1.15 1.886v3.467h2.207zM136.176 14.212h2.211v7.121h-2.211v-7.121zM137.281 10.667c-.707 0-1.281.574-1.281 1.281s.574 1.293 1.281 1.293 1.281-.586 1.281-1.293-.575-1.281-1.281-1.281z"/></symbol><symbol id="icon-logo" viewBox="0 0 59 32"><path fill="#8e8f99" style="fill:var(--color5, #8e8f99)" d="m21.714 4 4.004 3.815-7.433-.004v18.51h19.429v-7.077l4 3.811V4.001h-20zm15.824 14.796L26.184 7.979h11.354v10.817zm-3.525 4.817H21.36V11.164h.894V22.77h11.759v.843zm-10.13 6.136-.472-.97h-.389l.684 1.284v.748h.353v-.748l.684-1.284h-.388l-.472.97zm1.739-.969h.084l.767 2.031h-.368l-.164-.476h-.786l-.164.476h-.367l.765-2.031h.234zm-.373 1.278h.595l-.298-.862-.297.862zm2.455-.337-.044-.057c-.052-.069-.093-.135-.121-.2s-.043-.132-.043-.201c0-.106.022-.197.066-.273s.106-.135.186-.176a.593.593 0 0 1 .28-.063c.103 0 .192.021.266.063a.44.44 0 0 1 .103.707.963.963 0 0 1-.142.124l-.141.103.402.475a.826.826 0 0 0 .088-.379h.29c0 .099-.01.192-.029.28a.878.878 0 0 1-.149.335l.298.351h-.389l-.118-.139a.796.796 0 0 1-.208.114.938.938 0 0 1-.315.053c-.135 0-.252-.025-.35-.074s-.175-.117-.229-.204a.56.56 0 0 1-.08-.297c0-.083.017-.155.052-.218s.081-.122.141-.176c.055-.05.118-.1.188-.15zm.167.204-.042.031c-.049.04-.086.079-.11.116a.322.322 0 0 0-.057.181c0 .059.013.113.038.162s.064.087.113.116a.37.37 0 0 0 .183.042.514.514 0 0 0 .328-.116l-.452-.532zm.08-.371.125-.084c.059-.039.1-.077.126-.114s.038-.086.038-.142c0-.048-.019-.093-.056-.134s-.09-.061-.158-.061a.204.204 0 0 0-.194.121.284.284 0 0 0-.024.119c0 .042.011.085.032.13s.051.09.088.138l.023.029zm3.554.596h-.349c-.01.088-.032.163-.064.225s-.079.106-.141.138a.522.522 0 0 1-.241.047c-.082 0-.152-.016-.211-.049s-.107-.079-.145-.138c-.037-.059-.065-.131-.084-.213s-.026-.177-.026-.279v-.172c0-.108.01-.204.029-.287s.051-.156.091-.213c.04-.058.09-.101.149-.131s.129-.045.209-.045c.098 0 .177.017.237.05s.106.08.137.142a.628.628 0 0 1 .061.225h.349c-.014-.136-.052-.256-.114-.361s-.148-.187-.259-.247a.857.857 0 0 0-.41-.089c-.127 0-.242.022-.345.067s-.188.109-.261.194c-.073.084-.128.185-.167.303s-.057.25-.057.396v.169c0 .146.019.278.056.396s.093.219.165.303c.072.083.158.147.258.192s.213.067.339.067c.164 0 .303-.03.417-.089s.203-.141.266-.244a.82.82 0 0 0 .112-.356zm1.938-.299v-.112c0-.153-.02-.291-.061-.412s-.097-.226-.172-.311c-.074-.087-.163-.152-.266-.197s-.218-.068-.343-.068c-.125 0-.239.023-.342.068s-.191.11-.266.197c-.074.086-.132.189-.173.311s-.061.258-.061.412v.112c0 .154.02.291.061.413s.1.226.176.311a.767.767 0 0 0 .608.264c.126 0 .24-.022.343-.067s.192-.111.265-.197c.074-.086.132-.189.172-.311s.06-.259.06-.413zm-.351-.114v.114c0 .113-.011.214-.033.301s-.053.161-.095.222c-.042.059-.093.105-.153.135s-.13.045-.208.045c-.077 0-.146-.015-.206-.045s-.113-.076-.156-.135c-.043-.06-.075-.134-.098-.222s-.033-.188-.033-.301v-.114c0-.113.011-.213.033-.3s.054-.16.096-.219a.421.421 0 0 1 .361-.18c.077 0 .147.015.208.046.061.03.113.074.155.134s.075.132.096.219c.022.087.033.186.033.3z"/></symbol><symbol id="icon-logo1" viewBox="0 0 59 32"><path fill="#8e8f99" style="fill:var(--color5, #8e8f99)" d="M28.636 3.391h-.078c-.12-.007-.24-.01-.36-.013h-.26c-.227 0-.458.006-.688.017a.451.451 0 0 0-.052 0 16.148 16.148 0 0 0-6.009 1.533l-.247.119v12.652l.578-.196a22.494 22.494 0 0 1 1.607-.477 19.624 19.624 0 0 1 4.626-.615v1.662c-.207.002-.408.007-.609.017h-.048a18.54 18.54 0 0 0-3.559.546c-1.477.37-2.901.925-4.24 1.652V4.061a16.979 16.979 0 0 1 4.448-1.809 17.043 17.043 0 0 1 4.192-.541h.244c.292.007.577.02.844.041.705.049 1.404.161 2.089.333v1.636a12.928 12.928 0 0 0-2.024-.305l-.041-.004c-.141-.012-.282-.024-.414-.024zm2.88 1.673c.363.028.739.041 1.119.041a17.95 17.95 0 0 0 4.407-.565 18.14 18.14 0 0 0 4.238-1.654v15.938a17.068 17.068 0 0 1-4.449 1.809c-1.37.352-2.778.533-4.192.539a12.76 12.76 0 0 1-3.18-.375V4.756c.246.057.499.109.756.153.422.071.867.123 1.301.155zm8.111.123-.578.195c-.532.179-1.068.339-1.608.481a19.61 19.61 0 0 1-4.804.616c-.377 0-.724-.01-1.06-.032l-.461-.03v13.015l.396.035c.367.032.746.048 1.128.048a15.335 15.335 0 0 0 3.783-.49 15.84 15.84 0 0 0 2.956-1.062l.247-.119V5.188zM20.421 25.836a.856.856 0 0 0-.643-.26.953.953 0 0 0-.372.07.828.828 0 0 0-.475.481.957.957 0 0 0-.067.359v2.168a1.03 1.03 0 0 0 .085.445c.051.111.125.21.217.291a.752.752 0 0 0 .298.154c.105.03.214.045.324.045a.906.906 0 0 0 .828-.568.873.873 0 0 0 .069-.346v-.243h-.567v.193a.506.506 0 0 1-.033.193.35.35 0 0 1-.082.122.33.33 0 0 1-.119.062.367.367 0 0 1-.119.02.283.283 0 0 1-.266-.116.512.512 0 0 1-.075-.291v-2.021a.686.686 0 0 1 .069-.324.284.284 0 0 1 .277-.13c.049-.002.097.008.141.03s.082.053.112.092a.461.461 0 0 1 .094.291v.187h.561v-.221a1.022 1.022 0 0 0-.069-.379.893.893 0 0 0-.189-.305zM23.788 25.811a1.005 1.005 0 0 0-.645-.238.976.976 0 0 0-.637.238.886.886 0 0 0-.22.304 1.01 1.01 0 0 0-.082.42v2.079c-.004.146.024.292.082.426a.838.838 0 0 0 .22.291c.087.08.188.143.299.183a.976.976 0 0 0 .982-.183.893.893 0 0 0 .296-.717v-2.079a1.01 1.01 0 0 0-.082-.42.927.927 0 0 0-.214-.304zm-.265 2.803a.377.377 0 0 1-.112.301.414.414 0 0 1-.534 0 .38.38 0 0 1-.112-.301v-2.079a.377.377 0 0 1 .112-.301.414.414 0 0 1 .534 0 .38.38 0 0 1 .112.301v2.079zM28.21 29.543v-3.936h-.545l-.716 2.084h-.01l-.721-2.084h-.539v3.936h.562v-2.395h.01l.551 1.693h.28l.555-1.693h.01v2.395h.562zM31.405 25.882a.785.785 0 0 0-.318-.215 1.254 1.254 0 0 0-.408-.061h-.835v3.936h.561v-1.537h.289c.175.008.349-.029.506-.108a.817.817 0 0 0 .308-.301.94.94 0 0 0 .129-.343c.022-.148.032-.298.03-.448a2.212 2.212 0 0 0-.055-.562.828.828 0 0 0-.207-.362zm-.289 1.2a.49.49 0 0 1-.052.205.313.313 0 0 1-.145.138.574.574 0 0 1-.265.049h-.256v-1.338h.289a.55.55 0 0 1 .253.049.32.32 0 0 1 .132.145.572.572 0 0 1 .049.219v.262c0 .092.006.186 0 .27h-.006zM34.062 25.606h-.46l-.867 3.936h.561l.165-.846h.765l.165.846h.561l-.889-3.936zm-.518 2.555.276-1.427h.01l.275 1.427h-.561zM37.686 27.978h-.01l-.847-2.371h-.539v3.936h.561v-2.367h.012l.857 2.367h.528v-3.936h-.561v2.371zM41.113 25.606l-.451 1.565h-.012l-.451-1.565h-.594l.77 2.273v1.664h.561v-1.664l.77-2.273h-.594zM18.857 30.654h.27v.759h.184v-.759h.269v-.155h-.723v.155zM21.13 30.498l-.354.914h.195l.075-.208h.364l.078.208h.2l-.363-.914h-.195zm-.029.553.124-.339.124.339H21.1zM23.376 31.076h.211v.118a.357.357 0 0 1-.217.077.23.23 0 0 1-.193-.087.39.39 0 0 1-.068-.238c0-.203.088-.305.263-.305a.194.194 0 0 1 .207.145l.181-.035c-.039-.179-.168-.269-.387-.269a.458.458 0 0 0-.319.118.457.457 0 0 0-.131.351.498.498 0 0 0 .117.343.446.446 0 0 0 .347.134.548.548 0 0 0 .387-.145v-.36h-.396v.154zM25.67 30.498h-.185v.914h.64v-.155h-.455v-.759zM27.61 30.498h-.185v.914h.185v-.914zM29.507 31.109l-.374-.61h-.179v.914h.172v-.597l.367.597h.184v-.914h-.169v.61zM31.221 31.01h.455v-.155h-.455v-.201h.49v-.155h-.675v.914h.694v-.155h-.509v-.247zM35.378 30.859h-.36v-.36h-.184v.914h.184v-.4h.36v.4h.184v-.914h-.184v.36zM37.103 31.01h.457v-.155h-.457v-.201h.492v-.155h-.675v.914h.692v-.155h-.509v-.247zM39.442 31.01c.159-.025.24-.109.24-.254a.213.213 0 0 0-.09-.203.516.516 0 0 0-.267-.054h-.387v.914h.184v-.382h.036a.262.262 0 0 1 .114.02c.027.017.049.04.065.067l.2.291h.22l-.111-.179a.642.642 0 0 0-.202-.219zm-.185-.126h-.136v-.23h.145a.476.476 0 0 1 .187.022.117.117 0 0 1 .04.095c-.001.018-.006.035-.014.051s-.02.029-.035.04a.536.536 0 0 1-.187.022zM41.206 31.01h.455v-.155h-.455v-.201h.492v-.155h-.676v.914h.694v-.155h-.509v-.247z"/></symbol><symbol id="icon-logo2" viewBox="0 0 59 32"><path fill="#8e8f99" style="fill:var(--color5, #8e8f99)" d="M21.034 28.128c.009 0 .018.002.027.005s.016.008.022.014l.126.119a1.034 1.034 0 0 1-.355.225 1.4 1.4 0 0 1-.503.081 1.348 1.348 0 0 1-.473-.076 1.044 1.044 0 0 1-.357-.213.935.935 0 0 1-.23-.329 1.08 1.08 0 0 1-.08-.422 1.006 1.006 0 0 1 .087-.423.99.99 0 0 1 .244-.329 1.14 1.14 0 0 1 .379-.214c.155-.051.321-.077.487-.076.155-.003.309.02.453.069.125.046.24.111.339.19l-.106.127a.087.087 0 0 1-.027.023.07.07 0 0 1-.043.009.107.107 0 0 1-.046-.014l-.057-.034-.079-.043a.9.9 0 0 0-.25-.076 1.181 1.181 0 0 0-.538.043.73.73 0 0 0-.452.412.857.857 0 0 0-.065.334c-.002.116.02.23.065.34a.73.73 0 0 0 .437.408.96.96 0 0 0 .325.054c.064.001.129-.003.192-.011a.784.784 0 0 0 .417-.174.105.105 0 0 1 .06-.022zM24.678 27.532c.002.143-.027.285-.085.419-.051.122-.132.233-.238.326s-.232.166-.373.214c-.309.101-.65.101-.959 0a1.127 1.127 0 0 1-.371-.214.956.956 0 0 1-.24-.329 1.074 1.074 0 0 1 0-.84.982.982 0 0 1 .24-.33c.106-.09.232-.16.371-.206.308-.102.651-.102.959 0 .14.049.267.122.372.214a.958.958 0 0 1 .323.747zm-.331 0a.892.892 0 0 0-.06-.337.687.687 0 0 0-.436-.411 1.122 1.122 0 0 0-.697 0 .747.747 0 0 0-.267.159.678.678 0 0 0-.17.252.976.976 0 0 0 0 .674.703.703 0 0 0 .437.41c.225.072.472.072.697 0a.7.7 0 0 0 .436-.41.873.873 0 0 0 .06-.337zM27.164 27.885l.033.076.036-.076a.768.768 0 0 1 .041-.074l.806-1.252c.016-.022.03-.035.046-.039a.21.21 0 0 1 .066-.007h.238v2.036h-.282v-1.56a.41.41 0 0 1 0-.07l-.811 1.269c-.01.019-.027.035-.047.046s-.045.017-.069.017h-.046c-.025 0-.049-.006-.069-.017s-.037-.027-.047-.047l-.834-1.277V28.545h-.273v-2.032h.238a.21.21 0 0 1 .066.007c.02.008.035.022.044.039l.823 1.253c.016.023.03.047.041.073zM30.197 27.784v.763h-.316v-2.034h.704a1.57 1.57 0 0 1 .393.044.793.793 0 0 1 .278.127.53.53 0 0 1 .158.199.619.619 0 0 1 .054.26.56.56 0 0 1-.228.463.822.822 0 0 1-.279.135 1.347 1.347 0 0 1-.38.047l-.382-.005zm0-.218h.382a.907.907 0 0 0 .244-.031.554.554 0 0 0 .177-.088.38.38 0 0 0 .145-.306c.004-.057-.007-.113-.032-.166s-.062-.1-.11-.139a.69.69 0 0 0-.424-.109h-.382v.838zM34.437 28.549h-.249a.116.116 0 0 1-.11-.066l-.215-.492h-1.077l-.222.492a.115.115 0 0 1-.11.066h-.249l.946-2.036h.328l.959 2.036zm-1.562-.756h.89l-.375-.829a1.33 1.33 0 0 1-.071-.191l-.036.106a.95.95 0 0 1-.035.086l-.372.828zM35.8 26.522a.131.131 0 0 1 .047.036l1.38 1.535v-1.58h.282v2.036h-.158a.16.16 0 0 1-.065-.012.161.161 0 0 1-.05-.038l-1.379-1.534a.41.41 0 0 1 0 .07v1.514h-.282v-2.036h.167a.18.18 0 0 1 .057.009zM39.834 27.739v.809h-.316v-.809l-.872-1.226h.282a.116.116 0 0 1 .068.018.187.187 0 0 1 .043.046l.546.791c.022.034.041.065.057.094s.028.058.039.086l.041-.088a.624.624 0 0 1 .054-.093l.538-.797a.208.208 0 0 1 .041-.043.107.107 0 0 1 .068-.02h.285l-.874 1.232zM27.008 23.095c.137.015.276.027.416.038 2.128-.813 3.929-2.145 5.176-3.828s1.887-3.643 1.838-5.634l-2.346-2.004c.477 2.12.254 4.313-.644 6.331s-2.436 3.783-4.441 5.098z"/><path fill="#8e8f99" style="fill:var(--color5, #8e8f99)" d="m26.17 23.002.063.011c2.143-1.31 3.776-3.138 4.69-5.25s1.064-4.408.433-6.594l-3.341-2.854c1.351 2.346 1.895 4.972 1.568 7.572s-1.511 5.067-3.414 7.115zM37.5 16.024c-.568 2.188-1.946 4.162-3.931 5.628-.58.43-1.205.814-1.868 1.145 1.616-.406 3.102-1.123 4.342-2.097s2.202-2.178 2.812-3.52L37.5 16.024z"/><path fill="#8e8f99" style="fill:var(--color5, #8e8f99)" d="m36.968 15.702-1.929-1.648c-.037 1.879-.662 3.716-1.811 5.318s-2.779 2.914-4.721 3.796h.009c.433 0 .865-.022 1.295-.066 1.815-.633 3.418-1.64 4.667-2.931s2.104-2.826 2.489-4.469zM26.449 7.112l-2.301-1.969c-2.057.679-3.827 1.873-5.077 3.426s-1.922 3.392-1.928 5.276c.008 2.082.828 4.103 2.331 5.742s3.603 2.803 5.967 3.308c2.111-2.197 3.346-4.912 3.528-7.75s-.701-5.652-2.52-8.032zM42.286 15.399c-.008-2.47-1.161-4.838-3.205-6.585s-4.815-2.731-7.707-2.739a12.47 12.47 0 0 0-3.907.621l14.09 12.039a8.056 8.056 0 0 0 .729-3.337z"/></symbol><symbol id="icon-logo3" viewBox="0 0 59 32"><path fill="#8e8f99" style="fill:var(--color5, #8e8f99)" d="M13.759 12.296h-.002c-1.363 0-2.468.996-2.468 2.225v.002c0 1.229 1.105 2.225 2.468 2.225h.002c1.363 0 2.468-.996 2.468-2.225v-.002c0-1.229-1.105-2.225-2.468-2.225zM31.978 11.585c-.004-1.707-.758-3.343-2.096-4.551s-3.153-1.887-5.047-1.891c-1.894.003-3.709.683-5.049 1.89s-2.094 2.844-2.098 4.552v9.414s14.288-1.435 14.289-9.412v-.001zM6.286 24.088c.003 1.188.528 2.326 1.46 3.166s2.194 1.314 3.511 1.317c1.317-.003 2.579-.477 3.511-1.317s1.456-1.978 1.46-3.165v-6.55s-9.942.999-9.942 6.549zm4.971 1.174c-.258 0-.509-.069-.723-.198s-.381-.312-.479-.527-.124-.45-.074-.678c.05-.228.174-.437.356-.601s.414-.276.666-.321c.252-.045.514-.022.752.067s.441.239.584.432a1.093 1.093 0 0 1 .121 1.103 1.164 1.164 0 0 1-.282.382c-.121.109-.265.196-.423.256s-.328.09-.499.09v-.004zM20.348 23.151v2.438h-.502v-2.438h.502zm.971 1.042v.392h-1.108v-.392h1.108zm.117-1.042v.393h-1.225v-.393h1.225zm2.294 1.162v.116c0 .185-.025.352-.075.499s-.121.273-.213.377a.919.919 0 0 1-.328.236 1.039 1.039 0 0 1-.42.082c-.153 0-.293-.027-.42-.082a.946.946 0 0 1-.328-.236 1.09 1.09 0 0 1-.216-.377 1.548 1.548 0 0 1-.075-.499v-.116c0-.186.025-.353.075-.499.05-.147.121-.273.213-.377a.938.938 0 0 1 .328-.238c.127-.055.267-.082.42-.082.154 0 .294.027.42.082a.912.912 0 0 1 .328.238c.093.104.164.229.214.377.051.146.077.312.077.499zm-.508.116v-.119c0-.13-.012-.243-.035-.342s-.058-.181-.104-.248a.46.46 0 0 0-.393-.203.458.458 0 0 0-.392.203c-.045.067-.079.15-.102.248s-.035.212-.035.342v.119c0 .128.012.242.035.341a.744.744 0 0 0 .104.249c.046.067.102.118.167.152s.141.052.226.052a.454.454 0 0 0 .392-.204.764.764 0 0 0 .102-.249c.023-.099.035-.213.035-.341zm2.138.522a.326.326 0 0 0-.02-.117.221.221 0 0 0-.07-.097c-.035-.03-.083-.06-.146-.089s-.143-.059-.243-.09a3.168 3.168 0 0 1-.315-.121 1.28 1.28 0 0 1-.261-.156.688.688 0 0 1-.177-.209.58.58 0 0 1-.064-.276c0-.102.022-.194.067-.276a.63.63 0 0 1 .188-.214.88.88 0 0 1 .285-.139 1.3 1.3 0 0 1 .363-.049c.18 0 .337.032.47.097s.238.154.311.266a.683.683 0 0 1 .112.387h-.499a.382.382 0 0 0-.045-.188.304.304 0 0 0-.134-.129.48.48 0 0 0-.224-.047.518.518 0 0 0-.218.04.297.297 0 0 0-.131.105.262.262 0 0 0-.044.147c0 .041.01.079.03.112.021.034.052.065.094.094s.092.056.152.082c.06.026.13.051.209.075.133.04.249.085.35.136.102.05.186.107.254.169a.624.624 0 0 1 .206.483c0 .106-.021.201-.062.285s-.101.155-.179.213c-.078.058-.171.102-.28.132s-.229.045-.363.045a1.4 1.4 0 0 1-.357-.047 1.072 1.072 0 0 1-.32-.146c-.095-.065-.171-.147-.228-.248s-.085-.219-.085-.357h.504c0 .076.012.14.035.192s.056.095.099.127a.426.426 0 0 0 .154.07c.06.015.126.022.198.022a.527.527 0 0 0 .214-.037.272.272 0 0 0 .126-.102.268.268 0 0 0 .042-.147zm1.934-1.8v2.438h-.501v-2.438h.501zm.75 0v.393h-1.989v-.393h1.989zm1.922 2.046v.392h-1.297v-.392h1.297zm-1.134-2.046v2.438h-.502v-2.438h.502zm.965.993v.382h-1.128v-.382h1.128zm.167-.993v.393h-1.296v-.393h1.296zm.295 0h.909c.186 0 .346.028.48.084.135.056.239.138.311.248s.109.244.109.403a.773.773 0 0 1-.067.337.63.63 0 0 1-.186.233.965.965 0 0 1-.28.147l-.159.084h-.79l-.003-.392h.588c.088 0 .161-.016.219-.047s.102-.075.131-.131a.403.403 0 0 0 .045-.194c0-.078-.015-.146-.044-.203s-.073-.1-.132-.131-.133-.045-.223-.045h-.407v2.044h-.502V23.15zm1.362 2.438-.556-1.086.531-.003.562 1.066v.023h-.537zm2.637-.869h-.621v-.392h.621a.51.51 0 0 0 .234-.047c.06-.032.104-.077.132-.134s.042-.121.042-.192c0-.073-.014-.14-.042-.203s-.072-.113-.132-.151-.138-.057-.234-.057h-.447v2.044h-.502V23.15h.949c.191 0 .354.035.49.104a.742.742 0 0 1 .424.696c0 .157-.036.294-.109.408s-.177.204-.315.266c-.136.062-.3.094-.49.094zm2.896.477v.392h-1.297v-.392h1.297zm-1.133-2.046v2.438h-.502v-2.438h.502zm.964.993v.382h-1.128v-.382h1.128zm.168-.993v.393h-1.296v-.393h1.296zm1.418 0v2.438h-.501v-2.438h.501zm.75 0v.393h-1.989v-.393h1.989zm1.921 2.046v.392h-1.297v-.392h1.297zm-1.133-2.046v2.438h-.502v-2.438h.502zm.964.993v.382h-1.128v-.382h1.128zm.168-.993v.393h-1.296v-.393h1.296zm.294 0h.909c.186 0 .347.028.48.084.135.056.239.138.311.248s.109.244.109.403a.773.773 0 0 1-.067.337.63.63 0 0 1-.186.233.965.965 0 0 1-.28.147l-.159.084h-.79l-.003-.392h.588c.088 0 .161-.016.219-.047s.102-.075.131-.131a.403.403 0 0 0 .045-.194c0-.078-.014-.146-.044-.203s-.073-.1-.132-.131a.489.489 0 0 0-.223-.045h-.407v2.044h-.502V23.15zm1.363 2.438-.556-1.086.531-.003.563 1.066v.023h-.537zm2.103-.638a.326.326 0 0 0-.02-.117.221.221 0 0 0-.07-.097c-.035-.03-.083-.06-.146-.089s-.143-.059-.243-.09a3.076 3.076 0 0 1-.315-.121 1.28 1.28 0 0 1-.261-.156.58.58 0 0 1-.242-.485c0-.102.022-.194.067-.276a.63.63 0 0 1 .188-.214.88.88 0 0 1 .285-.139c.111-.032.232-.049.363-.049.18 0 .337.032.47.097s.238.154.311.266a.683.683 0 0 1 .112.387h-.499a.382.382 0 0 0-.045-.188.304.304 0 0 0-.134-.129.48.48 0 0 0-.224-.047.518.518 0 0 0-.218.04.297.297 0 0 0-.131.105.262.262 0 0 0-.044.147c0 .041.01.079.03.112.021.034.052.065.094.094s.092.056.152.082c.06.026.13.051.209.075.133.04.249.085.35.136.102.05.186.107.254.169a.624.624 0 0 1 .206.483c0 .106-.021.201-.062.285s-.101.155-.179.213c-.078.058-.171.102-.28.132s-.229.045-.363.045a1.4 1.4 0 0 1-.357-.047 1.072 1.072 0 0 1-.32-.146c-.095-.065-.171-.147-.228-.248s-.085-.219-.085-.357h.504c0 .076.012.14.035.192s.056.095.099.127a.426.426 0 0 0 .154.07c.06.015.126.022.198.022a.527.527 0 0 0 .214-.037.272.272 0 0 0 .126-.102.268.268 0 0 0 .042-.147z"/></symbol><symbol id="icon-logo4" viewBox="0 0 59 32"><path fill="#8e8f99" style="fill:var(--color5, #8e8f99)" d="M15.31 25.356c.14.156.215.352.211.553.007.131-.019.262-.075.383s-.143.229-.252.316c-.273.185-.61.276-.951.255h-1.671v-3.504h1.637c.323-.019.644.063.907.233.106.08.189.18.245.294s.08.238.073.361a.76.76 0 0 1-.19.536.91.91 0 0 1-.498.274.975.975 0 0 1 .565.3zm-1.961-.529h.7a.719.719 0 0 0 .445-.116c.053-.043.093-.096.12-.155s.037-.123.031-.187a.397.397 0 0 0-.148-.342.733.733 0 0 0-.458-.118h-.688v.919zm1.213 1.344c.056-.044.1-.099.129-.161s.041-.129.036-.195c.004-.068-.009-.135-.038-.198s-.074-.118-.131-.162a.786.786 0 0 0-.475-.127h-.734v.964h.744a.794.794 0 0 0 .47-.122zM18.656 26.862l-.911-1.369h-.342v1.369h-.783v-3.504h1.483c.374-.023.744.083 1.033.298.207.19.332.441.353.707s-.066.529-.242.743a1.245 1.245 0 0 1-.707.356l.97 1.4h-.852zm-1.253-1.847h.641c.445 0 .667-.177.667-.531.005-.072-.008-.145-.036-.212s-.072-.13-.128-.181a.75.75 0 0 0-.504-.142h-.648l.008 1.067zM22.939 26.157h-1.561l-.276.705h-.821l1.434-3.465h.888l1.428 3.465h-.822l-.27-.705zm-.209-.53-.57-1.479-.57 1.479h1.141zM28.299 26.863h-.778l-1.744-2.383v2.383h-.776v-3.504h.776l1.744 2.397v-2.397h.778v3.504zM32.737 26.024c-.161.265-.406.48-.704.618a2.5 2.5 0 0 1-1.093.221h-1.384v-3.504h1.384c.378-.009.754.065 1.093.216.298.135.543.348.704.611.16.285.243.6.243.919s-.083.634-.243.919zm-.89-.084c.222-.233.344-.529.344-.836s-.122-.603-.344-.836a1.448 1.448 0 0 0-.974-.298h-.54v2.268h.54c.355.02.705-.087.974-.298zM23.425 3.867s10.038 3.412 9.825 8.349v8.351s-10.031-3.413-9.821-8.351l-.004-8.349zM42.194 18.611c1.896-1.175 4.089-1.902 6.378-2.116v-2.614c-2.638.915-4.875 2.575-6.378 4.73z"/><path fill="#8e8f99" style="fill:var(--color5, #8e8f99)" d="M41.055 19.399c1.552-2.813 4.242-4.983 7.517-6.065V5.802s-14.296 4.86-13.993 11.891v11.889s.637-.217 1.639-.625c0-.38 0-.764.046-1.149.296-3.264 2.02-6.289 4.792-8.409z"/><path fill="#8e8f99" style="fill:var(--color5, #8e8f99)" d="M39.695 23.815c.075-.825.243-1.64.5-2.434-1.726 1.831-2.772 4.103-2.989 6.497-.021.226-.032.452-.038.685a43.581 43.581 0 0 0 2.75-1.304 11.103 11.103 0 0 1-.222-3.443zM40.264 23.858a10.594 10.594 0 0 0 .177 3.117c3.906-2.104 8.294-5.355 8.125-9.284v-.342c-2.791.281-5.401 1.379-7.431 3.126a10.75 10.75 0 0 0-.871 3.383z"/></symbol><symbol id="icon-logo5" viewBox="0 0 59 32"><path fill="#8e8f99" style="fill:var(--color5, #8e8f99)" d="M30.588 15.682a1.685 1.685 0 0 1-.346-1.138v-1.65c0-.506.115-.89.344-1.153s.624-.394 1.183-.393c.525 0 .898.112 1.119.336.24.286.358.635.331.987v.388h-.94v-.393a2.056 2.056 0 0 0-.027-.384.373.373 0 0 0-.134-.228.541.541 0 0 0-.34-.089.577.577 0 0 0-.358.094.443.443 0 0 0-.156.252 1.93 1.93 0 0 0-.037.408v2.003c-.015.193.027.387.121.562.047.06.112.107.188.136s.16.041.242.032c.12.009.24-.024.333-.091a.4.4 0 0 0 .14-.243 2.16 2.16 0 0 0 .029-.401v-.406h.94v.371c.026.367-.088.732-.325 1.038-.216.245-.584.368-1.125.368s-.949-.131-1.181-.403zM34.501 15.699c-.237-.257-.356-.631-.356-1.127v-1.736c0-.49.119-.861.356-1.113s.634-.377 1.191-.376c.553 0 .947.125 1.185.376.237.252.358.623.358 1.113v1.736c0 .49-.121.866-.362 1.125s-.634.388-1.181.388-.951-.131-1.191-.386zm1.628-.417a.968.968 0 0 0 .113-.514v-2.125a.943.943 0 0 0-.111-.504c-.048-.061-.114-.109-.192-.138s-.164-.04-.248-.03c-.084-.01-.17 0-.248.03s-.145.077-.193.138a.922.922 0 0 0-.113.504v2.136a.95.95 0 0 0 .113.514c.055.054.122.098.198.127a.68.68 0 0 0 .484 0 .59.59 0 0 0 .198-.127v-.01zM38.364 11.398h1.012l.761 3.203.778-3.203h.984l.099 4.623h-.728l-.078-3.213-.751 3.213h-.584l-.778-3.225-.072 3.225h-.735l.091-4.623zM43.133 11.398h1.576c.908 0 1.362.438 1.362 1.313 0 .838-.478 1.257-1.434 1.256H44.1v2.055h-.973l.006-4.623zm1.346 1.976c.096.011.194.003.286-.022s.177-.067.249-.124a.744.744 0 0 0 .14-.522 1.457 1.457 0 0 0-.047-.42c-.014-.046-.038-.089-.072-.127s-.075-.069-.123-.093a1.012 1.012 0 0 0-.434-.074h-.377v1.382h.377zM47.474 11.398h1.045l1.072 4.623h-.907l-.212-1.066h-.932l-.218 1.066h-.92l1.072-4.623zm.893 3.021-.364-1.941-.364 1.941h.728zM50.456 11.398h.681l1.304 2.637v-2.637h.807v4.623H52.6l-1.311-2.753v2.753h-.835l.002-4.623zM55.139 14.258l-1.084-2.854h.912l.661 1.833.621-1.833h.893l-1.07 2.854v1.763h-.934v-1.763zM32.09 18.042v.242h-.794v1.879h-.333v-1.879h-.798v-.242h1.924zM34.578 20.163h-.257a.119.119 0 0 1-.072-.02.113.113 0 0 1-.043-.049l-.23-.504h-1.101l-.23.504a.136.136 0 0 1-.035.057.119.119 0 0 1-.072.02h-.257l.973-2.12h.339l.984 2.112zm-1.61-.788h.918l-.389-.863a1.447 1.447 0 0 1-.072-.2l-.037.113-.035.089-.385.861zM36.256 19.954c.061.003.122.003.183 0 .053-.005.105-.013.156-.025.048-.01.094-.023.14-.039.043-.015.086-.034.13-.052v-.477h-.389c-.01 0-.019-.001-.028-.004a.07.07 0 0 1-.039-.03.038.038 0 0 1-.005-.021v-.163h.755v.813a1.497 1.497 0 0 1-.654.217 2.687 2.687 0 0 1-.284.013 1.497 1.497 0 0 1-.49-.079 1.178 1.178 0 0 1-.389-.222 1.028 1.028 0 0 1-.251-.336 1.07 1.07 0 0 1-.09-.44 1.099 1.099 0 0 1 .088-.443.97.97 0 0 1 .251-.336 1.19 1.19 0 0 1 .389-.22c.167-.054.343-.081.521-.079.091 0 .181.006.27.018a1.303 1.303 0 0 1 .427.138c.06.033.116.07.169.111l-.093.131c-.007.012-.018.022-.032.029s-.029.011-.044.011a.123.123 0 0 1-.06-.017 1.127 1.127 0 0 1-.095-.05.947.947 0 0 0-.13-.057 1.208 1.208 0 0 0-.426-.065 1.165 1.165 0 0 0-.376.059.835.835 0 0 0-.286.168.734.734 0 0 0-.181.264.99.99 0 0 0 0 .707c.043.1.109.191.195.267.08.073.177.13.284.168.124.037.255.051.385.042zM39.357 19.921h1.062v.242h-1.387v-2.12h.333l-.008 1.879zM41.524 20.162h-.333v-2.12h.333v2.12zM42.761 18.052c.02.01.037.023.051.039l1.422 1.598a.482.482 0 0 1 0-.076V18.033h.29v2.129h-.167a.146.146 0 0 1-.072-.012.211.211 0 0 1-.053-.04l-1.42-1.597v1.649h-.278v-2.12h.173a.14.14 0 0 1 .054.01zM46.974 18.042v.233h-1.179v.7h.955v.225h-.955v.724h1.179v.233h-1.521v-2.115h1.521zM12.112 4.948l14.772 3.619V21.25l-14.772-3.618V4.947zm-.948-1.081v14.382l16.666 4.084V7.953L11.164 3.867z"/><path fill="#8e8f99" style="fill:var(--color5, #8e8f99)" d="M20.096 29.01 3.429 24.922V10.541l16.667 4.086v14.382z"/><path fill="#8e8f99" style="fill:var(--color5, #8e8f99)" d="m11.44 4.785 14.58 3.574-6.2 5.352-14.582-3.576 6.202-5.35zm-.276-.918-7.735 6.675 16.667 4.086 7.733-6.675-16.666-4.086zM21.034 28.201l6.796-5.866-6.796-1.667V28.2z"/></symbol><symbol id="icon-phone1" viewBox="0 0 32 32"><path d="M22 20c-2 2-2 4-4 4s-4-2-6-4-4-4-4-6 2-2 4-4-4-8-6-8-6 6-6 6c0 4 4.109 12.109 8 16s12 8 16 8c0 0 6-4 6-6s-6-8-8-6z"/></symbol><symbol id="icon-envelop1" viewBox="0 0 32 32"><path d="M29 4H3C1.35 4 0 5.35 0 7v20c0 1.65 1.35 3 3 3h26c1.65 0 3-1.35 3-3V7c0-1.65-1.35-3-3-3zM12.461 17.199 4 23.789V8.113l8.461 9.086zM5.512 8h20.976L16 15.875 5.512 8zm7.278 9.553L16 21l3.21-3.447L25.79 26H6.211l6.58-8.447zm6.749-.354L28 8.113v15.676l-8.461-6.59z"/></symbol><symbol id="icon-mobile1" viewBox="0 0 32 32"><path d="M23 0H9C7.35 0 6 1.35 6 3v26c0 1.65 1.35 3 3 3h14c1.65 0 3-1.35 3-3V3c0-1.65-1.35-3-3-3zM12 1.5h8v1h-8v-1zM16 30a2 2 0 1 1-.001-3.999A2 2 0 0 1 16 30zm8-6H8V4h16v20z"/></symbol></defs></svg>